<?xml version="1.0" standalone="no"?>
<!DOCTYPE svg PUBLIC "-//W3C//DTD SVG 20010904//EN"
 "http://www.w3.org/TR/2001/REC-SVG-20010904/DTD/svg10.dtd">
<svg version="1.0" xmlns="http://www.w3.org/2000/svg"
 width="700.000000pt" height="700.000000pt" viewBox="0 0 700.000000 700.000000"
 preserveAspectRatio="xMidYMid meet">
<metadata>
Created by potrace 1.11, written by Peter Selinger 2001-2013
</metadata>
<g transform="translate(0.000000,700.000000) scale(0.100000,-0.100000)"
fill="#000000" stroke="none">
<path d="M1644 6980 c-84 -33 -160 -121 -178 -207 -4 -18 -7 -247 -8 -510 0
-408 3 -484 16 -521 29 -80 77 -134 156 -173 57 -29 174 -31 234 -5 63 28 133
101 157 165 20 54 21 70 20 541 0 293 -4 498 -10 518 -25 82 -98 162 -179 193
-52 21 -153 20 -208 -1z"/>
<path d="M2829 6987 c-89 -33 -151 -93 -186 -178 -16 -40 -18 -85 -17 -544 l0
-500 28 -55 c113 -221 415 -222 523 -2 l28 57 0 510 c0 571 4 538 -74 626 -22
26 -62 57 -88 69 -58 27 -163 36 -214 17z"/>
<path d="M3984 6982 c-50 -16 -117 -71 -149 -121 -43 -70 -47 -115 -43 -621 3
-458 4 -477 24 -521 31 -66 78 -114 142 -146 103 -51 238 -32 318 43 48 44 82
104 91 159 5 28 8 259 8 515 -1 534 -1 533 -83 619 -77 80 -200 109 -308 73z"/>
<path d="M475 4935 c-71 -29 -126 -81 -157 -149 l-23 -51 -2 -1395 c-2 -1488
-2 -1484 47 -1670 105 -403 396 -757 772 -938 84 -40 209 -88 251 -96 12 -2
40 -9 62 -14 57 -16 90 -21 170 -29 89 -9 2570 -10 2650 -1 198 23 464 115
598 207 25 17 48 31 52 31 14 0 156 119 228 192 244 247 392 576 413 918 4 52
8 97 10 99 1 2 36 5 76 6 447 19 895 278 1140 660 102 158 178 346 215 532 13
65 17 134 16 268 0 168 -3 198 -37 351 -22 103 -83 249 -154 374 -30 52 -58
97 -61 100 -4 3 -18 21 -31 40 -74 108 -228 255 -368 349 -136 91 -332 173
-497 207 -34 7 -79 16 -110 22 -16 3 -1193 6 -2615 8 l-2586 3 -59 -24z m4477
-564 c3 0 6 -541 6 -1201 0 -1310 1 -1287 -58 -1439 -114 -294 -382 -511 -690
-556 -25 -4 -610 -7 -1300 -7 -1393 1 -1332 -2 -1493 67 -109 47 -177 90 -258
163 -142 130 -244 320 -275 512 -9 58 -12 2453 -3 2460 6 4 4049 5 4071 1z
m707 -6 c130 -13 292 -79 406 -165 299 -225 419 -600 310 -965 -32 -107 -118
-254 -198 -335 -96 -99 -229 -185 -347 -225 -80 -28 -230 -54 -267 -47 l-22 4
0 866 c1 477 3 870 5 874 3 5 15 6 27 4 12 -3 51 -8 86 -11z"/>
</g>
</svg>
